<svg version="1.1" id="Ebene_1" xmlns="http://www.w3.org/2000/svg" x="0" y="0" viewBox="0 0 2048 1148" xml:space="preserve"><style>.st2{fill-rule:evenodd;clip-rule:evenodd;fill:#fff}</style><path id="Schatten_1_" class="st2" d="M233.9 811h-38.4s148.7 128.9 233.6 172c0 0 264.8 135.4 450 111.5 0 0-143.5 17.4-347-83.1 0 0-103.9-47.3-238.9-149.2L233.9 811zM541.8 53.4S-103 30 121.4 630.2h39.1s-105.7-218.4 0-386.1c0 0 51.2-95.2 151.5-136.9.1 0 136.9-53.8 229.8-53.8z"/><path id="Tacho_1_" d="M795 1023.6c42.8 8.1 85.6 12.3 127.7 12.3 52.3 0 100-6.6 142.4-18.9l12.8 25.5c-49.8 14.7-106.1 22.7-167.9 22.7-47.5 0-95.8-4.7-144.1-13.5l9.8-32h.1l15.2-47.4 4 51.3zm-252.8-91.2c70.1 37.7 144.7 66.6 219.8 84.2l-10 32.4c-88.7-17.7-177-49.4-259.9-91.8l35.1-33 .2.1 33.9-30.2-19.1 38.3zm558.8 72.4c55.6-22 100.5-54.8 132.7-96h42.3c-41.3 58.4-104.3 103.4-185.4 129.8l-12.7-25.5-21.9-40.8 45 32.5zm-622.9-55C405.3 911.1 337 864.1 276.8 811H367c44.8 39.3 94.2 74.8 146.6 105.3l-35.5 33.5zM262.6 373c-20.4 73.1-12.9 159.6 27.6 252.3.7 1.6 1.4 3.2 2.2 4.9h-94.9c-3.6-7.3-6.9-14.6-10.1-22-49.1-112.6-52.8-216.9-18.9-302.1l100 48.5v.1l53.4 26.2-59.3-7.9zm166.7-270.4l97.9 107.2-64.9-34.6c-92.1 30.9-157.5 89.9-189.1 167l-99.6-48.3c42-93.5 131-162.4 255.7-191.3zm376.4 21c106.4 31.1 209.9 81.3 301.7 144.9h-80.8c-69.9-40.3-144.9-71.9-220.9-92v-52.9zM770.5 168c-50-11-100.1-16.8-149.2-16.8-42.1 0-81.1 4.3-116.9 12.3l-58.8-64.4c37.8-7.5 78.7-11.5 122.5-11.5 73.5 0 148.9 11.2 223 31.9v85.4L770.5 168z" fill-rule="evenodd" clip-rule="evenodd" fill="#f40"/><path id="Auto_1_" class="st2" d="M1138.1 635.1c-1.5-.1-39.5-123.1-107.5-122.2 0 0-58.4-13.3-92.9 53.8 0 0 12.8-69.4 88-73.3 92.9-4.9 113.9 141.8 112.4 141.7zm332.4-200.4c17.5 6.3 240 23.8 244.4 112.4 0 0-161.9 8.2-244.4 4.9 0 0-15.3-1.8 0 19.6 0 0 42.1 44.4 34.2 44 0 0-186.9-2.8-239.5-19.6 0 0 90.5 29.4 224.8 29.3 0 0 203.8 5.7 239.5-9.8 0 0-1.9 19.3 4.9 19.6h9.8s4.7-36.3 0-63.5c0 0-6.6-34.9-14.7-48.9 0 0-34.2-53.8-122.2-78.2 0 0-68.4-14.7-97.8-14.7.1 0-56.5-1.5-39 4.9zm-273.7 88s37.8 65.1 68.4 68.4c0 0 204.1 21.8 220 14.7 0 0-33.1-26.7-34.2-39.1 0 0-7.9-13.6 14.7-24.4 0 0-175.1.7-244.4-14.7l-24.5-4.9zm-54.6-68c6.6 2.7 10.6 4.4 10.6 4.4-1.4-1.1-5.2-2.7-10.6-4.4-24.8-10.2-85.4-34.5-101.8-34.7 0 0 316.4-3.8 317.7-4.9 1.3-1.1-158.9-131.7-371.5-136.9-200.4-4.9-229.7 0-229.7 0s-97.8 4.9-298.2 112.4c0 0-48.9 24.4-78.2 29.3 0 0-20.3 6 4.9 19.6 0 0-67.2 34-68.4 53.8 0 0-5.6 75.7 0 88l9.8 14.7s-4.8-84 0-92.9c4.8-8.8 48.9-53.8 68.4-53.8 15.8 0 40.2.6 39.1 0s0-8.9 0-9.8c0-.8-36.1 2-34.2 0s0-9.8 0-9.8 17.5.3 34.2-4.9c16.7-5.1 236.7-130.5 347-132s353.9-4.2 405.7 39.1c0 0-53.2-20.3-112.4-19.6-59.3.7-264.4-8.8-249.3 4.9 15.1 13.7 111.8 95.2 113.8 113.8 0 0 87 .8 86.6-1.3-.3-1.8 85.3 15.1 116.5 25zM346.3 561.8s18.3-29.1 53.8-29.3c35.5-.3 56.4 54.1 58.7 58.7 0 0-11.4-78.8-58.7-78.2-47.3.5-53.8 48.8-53.8 48.8zm200.4-117.3h229.7s-26.7-20.7-14.7-29.3c12.1-8.6 39.1-29.3 83.1-4.9 0 0 19.6 14.7 4.9 24.4 0 0 12.3 10.1 14.7 9.8 2.4-.3 44 0 44 0s-89.3-122-127.1-122.2c0 0-37.3-11.1-73.3 0s-171 61.2-171.1 78.2c-.1 17-3.1 29.9 4.9 39.1l4.9 4.9z"/><path d="M152 693.3h-23.4l-17.3 81.3H79.8l17.3-81.3H74l2.6-11.1h77.8l-2.4 11.1zm72.8 81.3h-31.4l8.7-41.2h-17.9l-8.7 41.2h-31.4l19.6-92.4h31.6l-8.6 40.1h17.7l8.6-40.1h31.7l-19.9 92.4zm55-33c-.5 2.1-.9 4-1.2 5.5-.3 1.6-.4 3-.4 4.4 0 3.4 1.2 6.1 3.6 8.1s5.9 3.1 10.5 3.1c3.4 0 6.2-.6 8.4-1.7 2.2-1.2 4-2.7 5.4-4.7 1.4-1.9 2.5-4.2 3.3-6.7s1.5-5.2 2.1-8l12.4-59.3h13.2l-12.7 59.6c-1 4.7-2.4 9-4.2 13.1-1.8 4.1-4.5 7.7-7.9 10.8s-7.9 5.6-13.3 7.3c-5.4 1.8-12.2 2.7-20.2 2.7-11.2 0-19.4-1.8-24.7-5.5-5.3-3.6-8-9.2-8-16.8 0-3.4.4-7.7 1.3-12.9s2-10.9 3.3-17l8.9-41.3h33l-12.8 59.3zm12.5-88.4c3.5 0 6.1 1 7.7 3s2.5 4.4 2.5 7.2c0 3.1-1 5.9-3 8.4s-4.9 3.7-8.8 3.7c-3.6 0-6.2-1-7.9-3-1.6-2-2.5-4.4-2.5-7.2 0-3.1 1-5.9 3.1-8.4s5-3.7 8.9-3.7zm30.9 0c3.6 0 6.2 1 7.9 3 1.6 2 2.5 4.4 2.5 7.2 0 3.1-1 5.9-3.1 8.4-2 2.5-5 3.7-8.9 3.7-3.6 0-6.2-1-7.9-3-1.6-2-2.5-4.4-2.5-7.2 0-3.1 1-5.9 3.1-8.4 2-2.5 5-3.7 8.9-3.7zm100 51c0 5.7-1.6 11-4.8 15.9-3.2 4.8-8.5 8.5-15.9 11.1l16.9 43.5H387l-12.8-40.3h-1.6l-8.6 40.3h-31.4l19.6-92.4h38.3c4.5 0 8.7.3 12.7.8s7.4 1.6 10.4 3.2 5.3 3.8 7.1 6.7c1.6 2.8 2.5 6.6 2.5 11.2zM381.3 725c2.5 0 4.7-.8 6.5-2.5s3.2-3.8 4.4-6.2c1.1-2.4 1.9-5 2.4-7.8s.7-5.2.7-7.2c0-2.5-.4-4.7-1.3-6.5s-2.8-2.7-5.7-2.7h-6.5l-7.3 32.9h6.8zm74.8 49.6h-31.4l19.6-92.4h31.6l-19.8 92.4zm93.5 0h-34l-16.1-66.8-14.3 66.8h-13.1l19.6-92.4h34.8l15.3 67.6 14.4-67.6h13.4l-20 92.4zm67.8-42.2h37.7l-8.4 42.2h-17.2l-2.8-9.3h-.6c-2.5 2.9-5.5 5.4-8.9 7.4s-7.9 3.1-13.5 3.1c-4.3 0-8.4-.7-12.3-2.1-3.9-1.4-7.4-3.6-10.5-6.7-3.1-3.1-5.5-7.1-7.3-12s-2.8-10.9-2.8-17.9c0-7.6 1.2-14.7 3.5-21.5s5.8-12.8 10.5-18 10.5-9.3 17.5-12.3 15.1-4.5 24.4-4.5c7.2 0 13.4.8 18.8 2.5 5.3 1.6 10.4 3.5 15.1 5.5l-5.5 28.2h-24.6c.1-1.1.2-2.3.4-3.8s.3-3 .4-4.6c.1-1.6.2-3.2.3-4.7.1-1.6.1-2.9.1-4.1 0-.8 0-1.7-.1-2.7s-.3-2-.7-3-1-1.8-1.7-2.4c-.8-.6-1.9-.9-3.3-.9-2.5 0-4.8 1-6.9 3.1-2.1 2.1-4 4.8-5.6 8.3-1.6 3.4-3.1 7.3-4.3 11.7s-2.2 8.8-3.1 13.3c-.8 4.5-1.5 8.9-1.9 13.2s-.7 8.1-.7 11.3c0 1 0 2.2.1 3.6.1 1.5.4 2.9.9 4.3s1.3 2.6 2.3 3.6 2.5 1.5 4.4 1.5c3.2 0 6.3-1.7 9.3-5.2s5.3-9.3 6.8-17.5H615l2.4-9.6zm61.4-50.1H740l-2.3 11.1H708l-6.1 28.1h24.9l-2.3 10.9h-24.9l-6.7 31.1h29.7l-2.2 11.2h-61.2l19.6-92.4zm144.1 21.9c0 5.7-1.6 11-4.8 15.9-3.2 4.8-8.5 8.5-15.9 11.1l16.9 43.5h-32.4l-12.8-40.3h-1.6l-8.6 40.3h-31.4l19.6-92.4h38.3c4.5 0 8.7.3 12.7.8s7.4 1.6 10.4 3.2 5.3 3.8 7.1 6.7c1.6 2.8 2.5 6.6 2.5 11.2zM781 725c2.5 0 4.7-.8 6.5-2.5s3.2-3.8 4.4-6.2c1.1-2.4 1.9-5 2.4-7.8s.7-5.2.7-7.2c0-2.5-.4-4.7-1.3-6.5-.9-1.8-2.8-2.7-5.7-2.7h-6.5l-7.3 32.9h6.8zm154.2-31.7h-23.4l-17.3 81.3h-31.4l17.3-81.3h-23.1l2.6-11.1h77.8l-2.5 11.1zm31 48.3c-.5 2.1-.9 4-1.2 5.5-.3 1.6-.4 3-.4 4.4 0 3.4 1.2 6.1 3.6 8.1 2.4 2 5.9 3.1 10.5 3.1 3.4 0 6.2-.6 8.4-1.7 2.2-1.2 4-2.7 5.4-4.7 1.4-1.9 2.5-4.2 3.3-6.7s1.5-5.2 2.1-8l12.4-59.3h13.2l-12.7 59.6c-1 4.7-2.4 9-4.2 13.1s-4.5 7.7-7.9 10.8-7.9 5.6-13.3 7.3c-5.4 1.8-12.2 2.7-20.2 2.7-11.2 0-19.4-1.8-24.7-5.5-5.3-3.6-8-9.2-8-16.8 0-3.4.4-7.7 1.3-12.9s2-10.9 3.3-17l8.9-41.3h33l-12.8 59.3zm130.3 33h-34l-16.1-66.8-14.3 66.8H1019l19.6-92.4h34.8l15.3 67.6 14.4-67.6h13.4l-20 92.4zm47.6 0h-31.4l19.6-92.4h31.6l-19.8 92.4zm93.5 0h-34l-16.1-66.8-14.3 66.8h-13.1l19.6-92.4h34.8l15.3 67.6 14.4-67.6h13.4l-20 92.4zm67.8-42.2h37.7l-8.4 42.2h-17.2l-2.8-9.3h-.6c-2.5 2.9-5.5 5.4-8.9 7.4s-7.9 3.1-13.5 3.1c-4.3 0-8.4-.7-12.3-2.1-3.9-1.4-7.4-3.6-10.5-6.7-3.1-3.1-5.5-7.1-7.3-12s-2.8-10.9-2.8-17.9c0-7.6 1.2-14.7 3.5-21.5s5.8-12.8 10.5-18 10.5-9.3 17.5-12.3 15.1-4.5 24.4-4.5c7.2 0 13.4.8 18.8 2.5 5.3 1.6 10.4 3.5 15.1 5.5L1343 717h-24.6c.1-1.1.2-2.3.4-3.8s.3-3 .4-4.6.2-3.2.3-4.7c.1-1.6.1-2.9.1-4.1 0-.8 0-1.7-.1-2.7s-.3-2-.7-3-1-1.8-1.7-2.4c-.8-.6-1.9-.9-3.3-.9-2.5 0-4.8 1-6.9 3.1s-4 4.8-5.6 8.3c-1.6 3.4-3.1 7.3-4.3 11.7-1.2 4.4-2.2 8.8-3.1 13.3-.8 4.5-1.5 8.9-1.9 13.2s-.7 8.1-.7 11.3c0 1 0 2.2.1 3.6.1 1.5.4 2.9.9 4.3s1.3 2.6 2.3 3.6 2.5 1.5 4.4 1.5c3.2 0 6.3-1.7 9.3-5.2s5.3-9.3 6.8-17.5h-12.2l2.5-9.6zm89.1-50.1h61.2l-2.3 11.1h-29.8l-5.7 26.6h24.9l-2.3 11.2h-24.9l-9.3 43.5h-31.4l19.6-92.4zm142.4 21.9c0 5.7-1.6 11-4.8 15.9-3.2 4.8-8.5 8.5-15.9 11.1l16.9 43.5h-32.4l-12.8-40.3h-1.6l-8.6 40.3h-31.4l19.6-92.4h38.3c4.5 0 8.7.3 12.7.8s7.4 1.6 10.4 3.2 5.3 3.8 7.1 6.7c1.7 2.8 2.5 6.6 2.5 11.2zM1495 725c2.5 0 4.7-.8 6.5-2.5s3.2-3.8 4.4-6.2c1.1-2.4 1.9-5 2.4-7.8s.7-5.2.7-7.2c0-2.5-.4-4.7-1.3-6.5s-2.8-2.7-5.7-2.7h-6.5l-7.3 32.9h6.8zm63-42.7h61.2l-2.3 11.1h-29.7l-6.1 28.1h24.9l-2.3 10.9h-24.9l-6.7 31.1h29.7l-2.2 11.2h-61.2l19.6-92.4zm92.4 59.3c-.5 2.1-.9 4-1.2 5.5-.3 1.6-.4 3-.4 4.4 0 3.4 1.2 6.1 3.6 8.1s5.9 3.1 10.5 3.1c3.4 0 6.2-.6 8.4-1.7s4-2.7 5.4-4.7c1.4-1.9 2.5-4.2 3.3-6.7s1.5-5.2 2.1-8l12.4-59.3h13.2l-12.7 59.6c-1 4.7-2.4 9-4.2 13.1-1.8 4.1-4.5 7.7-7.9 10.8s-7.9 5.6-13.3 7.3c-5.4 1.8-12.2 2.7-20.2 2.7-11.2 0-19.4-1.8-24.7-5.5-5.3-3.6-8-9.2-8-16.8 0-3.4.4-7.7 1.3-12.9s2-10.9 3.3-17l8.9-41.3h33l-12.8 59.3zm130.3 33h-34l-16.1-66.8-14.3 66.8h-13.1l19.6-92.4h34.8l15.3 67.6 14.4-67.6h13.4l-20 92.4zm16.1 0l19.6-92.4h39.1c6 0 11.3.6 15.8 1.8s8.2 3.2 11.2 6 5.2 6.5 6.7 11.1 2.3 10.1 2.3 16.7c0 7.1-.9 14-2.7 20.8-1.8 6.8-4.8 12.8-8.9 18.2-4.2 5.3-9.6 9.6-16.4 12.9-6.7 3.2-15.1 4.9-24.9 4.9h-41.8zm39.9-10.2c3.2 0 6-1.3 8.5-4s4.6-6.1 6.4-10.2c1.8-4.1 3.3-8.7 4.5-13.7s2.2-9.8 2.9-14.5c.7-4.7 1.3-8.8 1.6-12.5.3-3.7.5-6.3.5-7.9 0-3-.6-5.4-1.8-7.1-1.2-1.7-3.3-2.5-6.3-2.5h-7l-15.6 72.3h6.3v.1zm76.1-82.1h61.2l-2.3 11.1H1942l-6.1 28.1h24.9l-2.3 10.9h-24.9l-6.7 31.1h29.7l-2.2 11.2h-61.2l19.6-92.4zM1526.7 824h-16l-11.9 55.7h-21.5l11.9-55.7h-15.9l1.8-7.6h53.3l-1.7 7.6zm27.4 12.9h20.3l-9.2 42.9h-16.1l-1.8-6.4h-.6c-1.7 2.1-4.1 3.8-7 5.1-3 1.4-5.9 2-8.9 2-4 0-7.1-1-9.4-3s-3.4-4.7-3.4-7.9c0-1.7.3-3.7.8-6.2.6-2.5 1.1-4.8 1.5-7l4.2-19.4h20.2l-5 23.3c-.1.5-.3 1.2-.4 1.9s-.3 1.4-.4 2.1c-.1.7-.2 1.4-.3 2-.1.6-.1 1.1-.1 1.5 0 1 .2 1.8.6 2.5s1.2 1 2.3 1c1.2 0 2.3-.4 3.4-1.2s1.9-1.6 2.5-2.3l6.8-30.9zm47.9 6.3c1.4-1.3 3-2.6 4.7-3.7 1.5-.9 3.3-1.8 5.4-2.6s4.4-1.2 6.9-1.2c3.5 0 6.3.9 8.6 2.6 2.3 1.8 3.4 4.2 3.4 7.2 0 .9-.1 1.9-.3 3.1-.2 1.2-.4 2.5-.7 3.8-.3 1.3-.5 2.7-.8 4-.3 1.4-.5 2.6-.7 3.6l-4.2 19.4h-20.2l5.5-26c.1-.9.3-1.7.5-2.6.2-.9.3-1.7.3-2.4 0-1-.2-1.8-.7-2.4-.5-.6-1.2-.9-2.2-.9-1.2 0-2.3.4-3.4 1.3s-1.9 1.6-2.5 2.2l-6.6 31h-20.3l9.1-42.9h16.2l1.8 6.4.2.1zm50.9 36.5h-20.2l9.1-42.9h20.4l-9.3 42.9zm11.9-55.9c0 1.5-.3 2.9-.9 4s-1.5 2.1-2.5 2.9c-1 .8-2.2 1.4-3.5 1.8-1.3.4-2.7.6-4.1.6-2.7 0-4.9-.6-6.7-1.9-1.8-1.3-2.7-3.3-2.7-6 0-1.5.3-2.8.9-3.9.6-1.2 1.4-2.1 2.4-2.9 1-.8 2.2-1.3 3.6-1.7s2.8-.6 4.2-.6c2.6 0 4.8.6 6.6 1.9 1.8 1.2 2.7 3.1 2.7 5.8zm24.8 19.4c1.4-1.3 3-2.6 4.7-3.7 1.5-.9 3.3-1.8 5.4-2.6s4.4-1.2 6.9-1.2c3.5 0 6.3.9 8.6 2.6 2.3 1.8 3.4 4.2 3.4 7.2 0 .9-.1 1.9-.3 3.1-.2 1.2-.4 2.5-.7 3.8-.3 1.3-.5 2.7-.8 4-.3 1.4-.5 2.6-.7 3.6l-4.2 19.4h-20.2l5.5-26c.1-.9.3-1.7.5-2.6.2-.9.3-1.7.3-2.4 0-1-.2-1.8-.7-2.4-.5-.6-1.2-.9-2.2-.9-1.2 0-2.3.4-3.4 1.3s-1.9 1.6-2.5 2.2l-6.6 31h-20.3l9.1-42.9h16.2l1.8 6.4.2.1zm72.4-6.3h16.1l-8.2 38.8c-.6 3-1.6 5.7-3 8.3-1.4 2.5-3.3 4.7-5.8 6.6-2.5 1.9-5.6 3.3-9.4 4.4-3.8 1.1-8.3 1.6-13.7 1.6h-3.6c-1.4 0-2.8-.1-4.3-.1s-2.9-.1-4.2-.1c-1.3-.1-2.4-.1-3.2-.2l1.9-7.2c2.1.3 4.3.5 6.5.5h5.7c2 0 3.7-.2 5-.5s2.5-.9 3.4-1.7 1.6-1.9 2.2-3.2 1-3 1.3-4.9l1.2-6.5h-.7c-.4.6-1 1.3-1.7 2.1-.8.8-1.7 1.6-2.9 2.4-1.2.8-2.6 1.4-4.2 1.9s-3.5.7-5.5.7c-2.3 0-4.3-.3-5.9-1s-2.9-1.7-3.9-2.9-1.7-2.7-2.2-4.4-.7-3.5-.7-5.5c0-.9.1-2.2.2-4s.4-3.8.9-6.1 1.2-4.6 2.2-6.9c1-2.4 2.3-4.5 3.9-6.4s3.7-3.5 6.1-4.8 5.4-1.9 8.8-1.9c1.1 0 2.2.1 3.5.3s2.5.6 3.7 1.1 2.3 1.3 3.2 2.3c.9 1 1.7 2.3 2.2 3.9h.6l4.5-6.6zm-11.2 8.6c-1.6 0-2.9.8-4 2.5s-1.9 3.7-2.6 5.9c-.7 2.3-1.1 4.5-1.4 6.7s-.4 3.9-.4 4.9c0 1.3.2 2.4.6 3.3.4.9 1.2 1.3 2.3 1.3.7 0 1.3-.2 1.9-.5s1.2-.7 1.8-1.1c.6-.4 1.1-.9 1.5-1.3.4-.5.7-.8.9-1.1l3.7-17.4c-.5-.7-1.1-1.5-1.8-2.2-.7-.6-1.5-1-2.5-1zm72.4 31.8c-2.8 1.1-5.7 1.9-8.8 2.4-3.1.5-6.6.7-10.5.7-3.5 0-6.6-.3-9.5-1s-5.4-1.8-7.5-3.3-3.8-3.5-5-5.9-1.8-5.4-1.8-8.8c0-3.6.6-6.9 1.8-10 1.2-3.1 3.1-5.8 5.6-8.1s5.7-4.2 9.5-5.5 8.4-2 13.8-2c4.3 0 8.1.3 11.3 1 3.2.7 5.8 2.3 7.9 4.7l-2.8 12.8h-13.6c.1-1.1.1-2.1.2-3s.1-1.8.1-2.9c0-2.1-.2-3.6-.7-4.5s-1.2-1.3-2.3-1.3c-1.9 0-3.5.9-4.9 2.7s-2.5 4-3.4 6.6-1.6 5.2-2 8.1c-.4 2.8-.6 5.2-.6 7.2 0 .7 0 1.5.1 2.2.1.8.2 1.5.4 2.1.2.7.5 1.2.9 1.6.4.4 1 .6 1.7.6s1.4-.2 2.3-.6c.9-.4 1.7-1 2.5-1.8s1.6-1.9 2.3-3.2c.7-1.3 1.3-2.9 1.7-4.8h14.3l-3 14zm27 2.4h-20.3l14.2-67h20.4l-14.3 67zm47-42.8h20.3l-9.2 42.9h-16.1l-1.8-6.4h-.6c-1.7 2.1-4.1 3.8-7 5.1-3 1.4-5.9 2-8.9 2-4 0-7.1-1-9.4-3s-3.4-4.7-3.4-7.9c0-1.7.3-3.7.8-6.2.6-2.5 1.1-4.8 1.5-7l4.2-19.4h20.2l-5 23.3c-.1.5-.3 1.2-.4 1.9s-.3 1.4-.4 2.1c-.1.7-.2 1.4-.3 2-.1.6-.1 1.1-.1 1.5 0 1 .2 1.8.6 2.5s1.2 1 2.3 1c1.2 0 2.3-.4 3.4-1.2s1.9-1.6 2.5-2.3l6.8-30.9zm36.3 42.8h-16.1l14.2-67h20.4l-6.5 30.5h.7c2.2-2.5 4.7-4.3 7.4-5.4 2.8-1.1 5.5-1.6 8.2-1.6 2.3 0 4.3.3 5.8 1 1.6.7 2.8 1.6 3.7 2.8.9 1.2 1.6 2.6 2 4.3s.6 3.4.6 5.3c0 .9-.1 2.3-.2 4.2s-.4 3.9-.9 6.2-1.1 4.7-2 7.1c-.9 2.4-2 4.6-3.4 6.6s-3.2 3.6-5.4 4.9c-2.2 1.3-4.7 1.9-7.7 1.9-1.8 0-3.5-.2-5.2-.6s-3.2-.9-4.6-1.6c-1.4-.7-2.6-1.4-3.6-2.3-1-.9-1.8-1.8-2.2-2.7h-.7l-4.5 6.4zm11.3-8.8c1.6 0 2.9-.8 4-2.5s1.9-3.7 2.6-6 1.1-4.6 1.4-6.9c.3-2.3.4-4 .4-5.1 0-1.3-.2-2.4-.6-3.3-.4-.9-1.2-1.3-2.3-1.3-1.3 0-2.6.5-3.7 1.4-1.1 1-2 1.8-2.5 2.4l-3.9 17.8c.5.8 1.1 1.6 1.8 2.3.8.8 1.7 1.2 2.8 1.2z" fill="#7cf12e" id="Grün_1_"/><path d="M801 879.7h-22.1l9.2-43.1-23.6 43.1h-13.6l-4.5-44.6-9.6 44.6h-9l13.5-63.3h25.4l3.1 35.7 19.1-35.7h25.6L801 879.7zm18.2-39.1c3.4-1.7 6.9-2.9 10.4-3.6 3.6-.8 7.5-1.1 11.9-1.1 4.3 0 7.8.3 10.6 1s5 1.6 6.7 2.9c1.7 1.3 2.8 2.8 3.5 4.5s1 3.7 1 5.9c0 1.3-.1 2.6-.2 4.1-.2 1.5-.3 2.7-.5 3.7l-4.7 21.9h-16l-1.8-6.4h-.6c-2.1 2.3-4.6 4.1-7.4 5.3s-5.6 1.8-8.4 1.8c-1.6 0-3.2-.2-4.7-.7s-2.9-1.2-4.1-2.1c-1.2-1-2.2-2.2-2.9-3.7s-1.1-3.3-1.1-5.4c0-3.5.9-6.2 2.8-8.2 1.9-2 4.4-3.6 7.5-4.6s6.6-1.7 10.5-1.9c3.9-.3 7.8-.4 11.7-.4.1-.7.3-1.6.5-2.8s.3-2.3.3-3.2c0-1.2-.3-2.3-.9-3.3-.6-1-1.9-1.5-3.9-1.5-2.3 0-4 .7-5.1 2-1.1 1.4-1.8 3-2.1 4.9h-14.6l1.6-9.1zm22.9 17.5h-1.8c-1.9 0-3.6.2-4.9.7-1.4.5-2.5 1.1-3.3 1.9s-1.4 1.7-1.8 2.7c-.4 1-.6 2-.6 3 0 1.6.4 2.8 1.2 3.6s1.8 1.2 2.9 1.2c1.4 0 2.8-.5 4.1-1.5 1.4-1 2.2-2.3 2.5-4l1.7-7.6zm33-21.2h16.2l1.5 7.5h.7c1.5-2.4 3.5-4.4 5.9-6.1 2.4-1.7 5.5-2.5 9.5-2.5h1.2c.6 0 1.2.1 1.9.3s1.4.4 2.2.7 1.5.7 2.2 1.2l-4.4 20.5h-10.9c-.1-4.1-.5-7-1.1-8.6s-1.6-2.4-2.9-2.4c-.7 0-1.4.1-2.1.4-.8.3-1.5.9-2.3 1.9l-6.4 29.8H866l9.1-42.7zm64.7 18.1l23.2-18.1h13.2l-19.8 16.2 14.9 26.6H949l-10.2-20-4.2 20h-20.3l14.2-67h20.4l-9.1 42.3zm55 4.7c-.3 1.5-.4 2.9-.5 4.2s-.1 2.5-.1 3.6c0 .6 0 1.3.1 2s.2 1.4.4 2 .6 1.2 1 1.6c.4.4 1 .6 1.8.6.6 0 1.3-.2 2-.6.8-.4 1.5-1 2.3-1.7s1.5-1.6 2.2-2.7c.7-1.1 1.2-2.3 1.6-3.6h16.3l-2.6 10.7c-1.3.9-2.9 1.6-4.6 2.2-1.7.6-3.6 1.1-5.5 1.4-1.9.4-3.9.6-5.9.8s-3.9.2-5.7.2c-3.3 0-6.4-.3-9.3-.9-2.9-.6-5.3-1.6-7.5-3.1-2.1-1.5-3.8-3.4-5-5.8-1.2-2.4-1.8-5.4-1.8-9 0-3.3.5-6.4 1.5-9.6 1-3.1 2.8-5.9 5.2-8.3 2.4-2.4 5.7-4.4 9.8-5.8 4.1-1.5 9.2-2.2 15.3-2.2 6.6 0 11.6 1 15 3.1 3.4 2.1 5 5.3 5 9.7 0 1.8-.3 3.7-.8 5.8s-1.3 3.9-2.4 5.3l-27.8.1zm13.3-11.9c0-2.1-.3-3.5-1-4.2s-1.5-1.1-2.4-1.1c-1.1 0-2 .3-2.9 1s-1.7 1.6-2.4 2.8-1.4 2.5-2 4-1.1 3.1-1.5 4.7h11.4c.1-.8.3-1.6.4-2.5.1-.7.2-1.5.3-2.4 0-.7.1-1.5.1-2.3zm46.2-4.6c1.4-1.3 3-2.6 4.7-3.7 1.5-.9 3.3-1.8 5.4-2.6s4.4-1.2 6.9-1.2c3.5 0 6.3.9 8.6 2.6 2.3 1.8 3.4 4.2 3.4 7.2 0 .9-.1 1.9-.3 3.1-.2 1.2-.4 2.5-.7 3.8-.3 1.3-.5 2.7-.8 4-.3 1.4-.5 2.6-.7 3.6l-4.2 19.4h-20.2l5.5-26c.1-.9.3-1.7.5-2.6.2-.9.3-1.7.3-2.4 0-1-.2-1.8-.7-2.4-.5-.6-1.2-.9-2.2-.9-1.2 0-2.3.4-3.4 1.3s-1.9 1.6-2.5 2.2l-6.6 31H1027l9.1-42.9h16.2l1.8 6.4.2.1zm82.2-7.4c7.9 0 13.7 1.4 17.2 4.2 3.8 2.9 5.7 7.8 5.7 14.6 0 4.2-.7 8-2.1 11.3s-3.4 6.1-5.9 8.3c-5.1 4.3-12.4 6.4-21.9 6.4-8.2 0-14-1.6-17.5-4.7-3.8-3.3-5.7-8.1-5.7-14.7 0-4.3.9-8.2 2.6-11.8 1.8-3.5 4.3-6.4 7.6-8.8 4.9-3.2 11.5-4.8 20-4.8zm-6.8 38c1.7 0 3.1-.9 4.3-2.8 1.2-1.9 2.2-4.1 2.9-6.8.7-2.7 1.3-5.5 1.6-8.4.4-2.9.5-5.4.5-7.5 0-1.9-.2-3.3-.5-4.2-.4-1-1.1-1.4-2.3-1.4-1.8 0-3.3 1-4.6 2.9-1.3 1.9-2.3 4.2-3.1 6.9-.8 2.7-1.4 5.4-1.7 8.2-.4 2.8-.5 5.1-.5 6.8-.1 4.1 1.1 6.3 3.4 6.3zm36.1-36.9h7.7l.4-1.7c.9-4 2.1-7.4 3.7-10.1 1.6-2.8 3.6-5 5.9-6.7s5-3 8-3.7c3-.8 6.4-1.1 10-1.1 2.8 0 5.5.2 8.3.6 2.7.4 5.3 1 7.6 1.7 2.3-1.7 4.9-2.9 7.7-3.6 2.8-.7 5.9-1.1 9.1-1.1 2.1 0 4.3.1 6.6.4 2.3.3 4.8.7 7.4 1.3l-1.7 8c-1.5-.2-3-.3-4.6-.4-1.6-.1-2.9-.1-3.9-.1-1.3 0-2.5.1-3.5.3s-1.9.6-2.6 1.1c-.7.6-1.4 1.3-1.9 2.3s-1 2.3-1.3 4l-1.9 9h10.5l-1.3 6.7h-10.6l-7.7 36.2h-20.3l7.7-36.2h-12.7l-7.7 36.2h-20.2l7.6-36.2h-7.7l1.4-6.9zm28.1 0h12.7l.9-4.1c.4-1.8.9-3.5 1.4-5 .6-1.6 1.2-3 1.9-4.3-2.3-.6-4.6-.9-6.9-.9-2.5 0-4.4.5-5.7 1.5-1.3 1-2.3 3.1-3 6.2l-1.3 6.6zm61.7 22.8c-.3 1.5-.4 2.9-.5 4.2s-.1 2.5-.1 3.6c0 .6 0 1.3.1 2s.2 1.4.4 2c.2.6.6 1.2 1 1.6s1 .6 1.8.6c.6 0 1.3-.2 2-.6.8-.4 1.5-1 2.3-1.7s1.5-1.6 2.2-2.7c.7-1.1 1.2-2.3 1.6-3.6h16.3l-2.6 10.7c-1.3.9-2.9 1.6-4.6 2.2-1.7.6-3.6 1.1-5.5 1.4-1.9.4-3.9.6-5.9.8s-3.9.2-5.7.2c-3.3 0-6.4-.3-9.3-.9-2.9-.6-5.4-1.6-7.5-3.1s-3.8-3.4-5-5.8c-1.2-2.4-1.8-5.4-1.8-9 0-3.3.5-6.4 1.5-9.6 1-3.1 2.8-5.9 5.2-8.3 2.4-2.4 5.7-4.4 9.8-5.8 4.1-1.5 9.2-2.2 15.3-2.2 6.6 0 11.6 1 15 3.1s5 5.3 5 9.7c0 1.8-.3 3.7-.8 5.8s-1.3 3.9-2.4 5.3l-27.8.1zm13.2-11.9c0-2.1-.3-3.5-1-4.2s-1.5-1.1-2.4-1.1c-1.1 0-2 .3-2.9 1s-1.7 1.6-2.4 2.8c-.7 1.2-1.4 2.5-2 4s-1.1 3.1-1.5 4.7h11.4c.1-.8.3-1.6.4-2.5.1-.7.2-1.5.3-2.4s.1-1.5.1-2.3zm46.3-4.6c1.4-1.3 3-2.6 4.7-3.7 1.5-.9 3.3-1.8 5.4-2.6s4.4-1.2 6.9-1.2c3.5 0 6.3.9 8.6 2.6 2.3 1.8 3.4 4.2 3.4 7.2 0 .9-.1 1.9-.3 3.1-.2 1.2-.4 2.5-.7 3.8-.3 1.3-.5 2.7-.8 4-.3 1.4-.5 2.6-.7 3.6l-4.2 19.4H1317l5.5-26c.1-.9.3-1.7.5-2.6.2-.9.3-1.7.3-2.4 0-1-.2-1.8-.7-2.4-.5-.6-1.2-.9-2.2-.9-1.2 0-2.3.4-3.4 1.3s-1.9 1.6-2.5 2.2l-6.6 31h-20.3l9.1-42.9h16.2l1.8 6.4.4.1zm53.4 16.5c-.3 1.5-.4 2.9-.5 4.2s-.1 2.5-.1 3.6c0 .6 0 1.3.1 2s.2 1.4.4 2c.2.6.6 1.2 1 1.6s1 .6 1.8.6c.6 0 1.3-.2 2-.6.8-.4 1.5-1 2.3-1.7s1.5-1.6 2.2-2.7c.7-1.1 1.2-2.3 1.6-3.6h16.3l-2.6 10.7c-1.3.9-2.9 1.6-4.6 2.2-1.7.6-3.6 1.1-5.5 1.4-1.9.4-3.9.6-5.9.8s-3.9.2-5.7.2c-3.3 0-6.4-.3-9.3-.9-2.9-.6-5.4-1.6-7.5-3.1s-3.8-3.4-5-5.8c-1.2-2.4-1.8-5.4-1.8-9 0-3.3.5-6.4 1.5-9.6 1-3.1 2.8-5.9 5.2-8.3 2.4-2.4 5.7-4.4 9.8-5.8 4.1-1.5 9.2-2.2 15.3-2.2 6.6 0 11.6 1 15 3.1s5 5.3 5 9.7c0 1.8-.3 3.7-.8 5.8s-1.3 3.9-2.4 5.3l-27.8.1zm13.3-11.9c0-2.1-.3-3.5-1-4.2s-1.5-1.1-2.4-1.1c-1.1 0-2 .3-2.9 1s-1.7 1.6-2.4 2.8c-.7 1.2-1.4 2.5-2 4s-1.1 3.1-1.5 4.7h11.4c.1-.8.3-1.6.4-2.5.1-.7.2-1.5.3-2.4s.1-1.5.1-2.3zm27.6-10.9h16.2l1.5 7.5h.7c1.5-2.4 3.5-4.4 5.9-6.1 2.4-1.7 5.5-2.5 9.5-2.5h1.2c.6 0 1.2.1 1.9.3.7.2 1.4.4 2.2.7.8.3 1.5.7 2.2 1.2l-4.4 20.5h-10.9c-.1-4.1-.5-7-1.1-8.6s-1.6-2.4-2.9-2.4c-.7 0-1.4.1-2.1.4-.8.3-1.5.9-2.3 1.9l-6.4 29.8h-20.3l9.1-42.7z" fill="#f40" id="Orange_1_"/></svg>