<?xml version="1.0" encoding="utf-8"?>
<!-- Generator: Adobe Illustrator 25.4.1, SVG Export Plug-In . SVG Version: 6.00 Build 0)  -->
<svg version="1.1" id="Ebene_1" xmlns:serif="http://www.serif.com/"
	 xmlns="http://www.w3.org/2000/svg" xmlns:xlink="http://www.w3.org/1999/xlink" x="0px" y="0px" viewBox="0 0 2048 1148"
	 style="enable-background:new 0 0 2048 1148;" xml:space="preserve">
<style type="text/css">
	.st0{display:none;}
	.st1{display:inline;fill:#FFFFFF;}
	.st2{fill-rule:evenodd;clip-rule:evenodd;fill:#FFFFFF;}
	.st3{fill-rule:evenodd;clip-rule:evenodd;fill:#FF4400;}
	.st4{fill:#7CF12E;}
	.st5{fill:#FF4400;}
</style>
<g id="cutkontur" class="st0">
	<path class="st1" d="M1994,849.6c0,1.4-0.1,3.2-0.2,5.6c-0.2,2.8-0.6,5.6-1.2,8.8c-0.7,3.2-1.6,6.5-2.8,9.8
		c-1.5,4.2-3.5,8.1-6,11.6c-3.1,4.3-7,7.8-11.5,10.5c-5.2,3.1-11.2,4.6-17.8,4.6c-3.3,0-6.6-0.4-9.8-1.1c-1.3-0.3-2.5-0.6-3.7-1
		c-2.3,0.9-4.8,1.4-7.3,1.4h-16.2c-1.5,0-3-0.2-4.5-0.5c-1.4,0.3-2.9,0.5-4.4,0.5h-16.2c-2.2,0-4.4-0.4-6.4-1
		c-3.9,1.2-7.9,1.8-12,1.8c-6,0-10.8-1.2-14.7-3c-2.7,1.4-5.8,2.2-9,2.2H1830c-2.5,0-4.8-0.5-7.1-1.3c-1.7,0.4-3.5,0.8-5.2,1.1
		c-4.1,0.7-8.7,1-13.7,1s-9.8-0.5-14.2-1.6c-2.5-0.6-4.8-1.4-7-2.3c-2.5,3.8-5.7,7.1-9.5,9.9c-4.4,3.3-9.8,5.9-15.9,7.6
		c-5.6,1.6-11.9,2.4-19.2,2.4c-1.1,0-2.5,0-4.1-0.1l-4.3-0.1c-1.6,0-3.2-0.1-4.7-0.2c-1.6-0.1-2.9-0.2-3.9-0.2
		c-5.9-0.5-11.2-3.6-14.6-8.4c-1.7-2.4-2.8-5-3.3-7.8h-11.7c-1.6,0-3.1-0.2-4.6-0.5c-1.5,0.3-3.1,0.5-4.6,0.5h-20.3
		c-1.5,0-3-0.2-4.5-0.5c-1.4,0.3-2.9,0.5-4.5,0.5h-20.2c-1.5,0-2.9-0.2-4.3-0.5c-1.4,0.3-2.8,0.5-4.3,0.5h-20.2
		c-1.6,0-3.1-0.2-4.6-0.5c-1.5,0.3-3.1,0.5-4.6,0.5h-20.3c-1.5,0-3-0.2-4.5-0.5c-1.4,0.3-2.9,0.5-4.5,0.5h-16.2
		c-2.2,0-4.3-0.4-6.4-1c-3.9,1.2-7.9,1.8-12,1.8c-8.6,0-14.9-2.6-19.2-5.4c-3.5,2.9-8,4.6-12.8,4.6h-21.5c-6,0-11.8-2.7-15.5-7.4
		c-3.8-4.7-5.3-10.9-4-16.8l0.1-0.6c-3.3,2.3-7.2,3.6-11.4,3.6h-5l-1.1,5.3c-2,9.2-10.1,15.8-19.6,15.8h-20.3
		c-2.9,0-5.8-0.6-8.3-1.8c-1.7,0.5-3.4,0.9-5.2,1.2c-2.6,0.5-5.3,0.9-7.9,1.1c-2.5,0.2-5,0.3-7.3,0.3c-4.7,0-9.2-0.4-13.4-1.3
		c-3.3-0.7-6.5-1.8-9.4-3.1c-3.3,2.3-7.3,3.7-11.5,3.7H1317c-1.6,0-3.1-0.2-4.6-0.5c-1.5,0.3-3.1,0.5-4.6,0.5h-13.9
		c3.4,6.6,2.8,14.5-1.5,20.6c-44.2,62.5-111.8,110-195.5,137.3c-2,0.7-4.1,1-6.2,1c-0.2,0-0.5,0-0.8,0c-1.9,1.4-4,2.5-6.3,3.1
		c-52.7,15.6-111.1,23.5-173.6,23.5c-4.4,0-8.9-0.1-13.3-0.1c1.4,2.7,2.3,5.7,2.4,9c0.2,10.2-7.3,19-17.4,20.3
		c-15.3,2-31.6,3-48.6,3l0,0c-77,0-169.9-19.8-276.2-58.8c-75.5-27.8-129.8-55.1-136.1-58.3C309,950.5,186.7,830.6,181.5,825.5
		c-5.8-5.7-7.5-14.3-4.5-21.8c1.8-4.5,5.2-8,9.3-10.2c-0.6-0.2-1.2-0.5-1.8-0.8c-2.7,1.4-5.8,2.1-9,2.1h-31.4
		c-6,0-11.8-2.7-15.5-7.4c-0.3-0.4-0.6-0.8-0.9-1.2c-3.7,5.3-9.7,8.6-16.4,8.6H79.8c-6,0-11.8-2.7-15.5-7.4
		c-3.8-4.7-5.3-10.8-4-16.8l12.2-57.2c-5.5-0.4-10.6-3.2-14.1-7.5c-3.8-4.8-5.2-11.1-3.8-17l2.6-11.1c2.1-9,10.2-15.4,19.5-15.4
		h77.8c1.6,0,3.2,0.2,4.7,0.5c1.5-0.3,3-0.5,4.6-0.5h31.6c3.1,0,6.2,0.7,8.9,2.1c2.7-1.3,5.7-2.1,8.9-2.1h31.7
		c2.6,0,5.1,0.5,7.4,1.4c2.3-0.9,4.8-1.4,7.4-1.4h0.9c0.4-4.2,1.6-8.3,3.5-12.1h-66.6c-7.7,0-14.7-4.4-18-11.3
		c-0.2-0.3-0.3-0.7-0.5-1c-0.4,1-0.9,2-1.5,2.9c-3.7,5.8-10,9.4-16.9,9.4h-39.1c-8.3,0-15.8-5.2-18.7-13
		C35.4,457,38,312.5,110.5,208c26.8-38.7,63.4-71.7,108.5-98.2c36.7-21.5,79.5-39,127.1-51.7c82.8-22.2,157.8-24.6,186.1-24.6
		c6.5,0,10.1,0.1,10.3,0.1C553.4,34,562,43,561.8,53.9c-0.1,5.5-2.4,10.4-6,14c4.1-0.1,8.2-0.1,12.3-0.1c73.9,0,150.8,11,228.4,32.6
		c2.6,0.7,4.9,1.9,7,3.5c0.8-0.1,1.5-0.1,2.3-0.1c1.9,0,3.8,0.3,5.6,0.8c106.9,31.2,213.2,82.3,307.5,147.6c7.2,5,10.3,14,7.7,22.4
		c-0.4,1.4-1,2.7-1.7,3.9c54,14.2,100.2,33.8,135.2,51.2c35.9,18,63.6,35.5,80.5,47.1c7.8,5.3,13.9,9.7,18.6,13.2l0,0
		c43.2,7.6,136.3,25.1,142.8,25.1s11.8,0.1,13,0.1c31.2,0.1,98.8,14.5,101.7,15.1c0.4,0.1,0.8,0.2,1.2,0.3
		c94.3,26.2,132.2,84.3,133.7,86.7c0.2,0.3,0.3,0.5,0.5,0.8c9.2,16.1,15.7,48.7,17,55.1c0,0.1,0,0.2,0.1,0.4
		c5.1,29.9,0.3,67.9,0.1,69.5c-1.1,8.7-7.9,17.2-16.3,19.3h4.6c5.8,0,11.1,2.5,14.8,6.6c3.7-4.1,9-6.6,14.8-6.6h13.4
		c2.8,0,5.5,0.6,7.9,1.6c2.4-1,5.1-1.6,7.9-1.6h39.1c7.7,0,14.8,0.8,21,2.5c6.9,1.9,12.9,5,18,9.2c3.2-7,10.2-11.8,18.2-11.8h61.2
		c6,0,11.7,2.7,15.5,7.4s5.3,10.8,4,16.7l-2.3,11c-1.5,6.9-6.4,12.4-12.8,14.7c2.1,4.1,2.8,8.8,1.8,13.4l-2.3,10.9
		c-1.1,5.1-4,9.3-8,12.1c0.7,0.7,1.4,1.3,2,2.1c3.8,4.6,5.3,10.7,4.2,16.5l-2.2,11.2c-1.5,7.8-7.5,13.8-14.9,15.6
		c3.3,1.2,6.2,3.3,8.5,6.1c3.8,4.7,5.3,10.8,4,16.7l-0.1,0.5c1.5,0.4,3,0.9,4.4,1.6c4.6,2,8.4,5,11.4,8.8c2.7,3.4,4.6,7.5,5.6,11.9
		C1993.6,842.9,1994,846.2,1994,849.6z"/>
</g>
<g>
	<g>
		<path id="Schatten_1_" class="st2" d="M233.9,811h-38.4c0,0,148.7,128.9,233.6,172c0,0,264.8,135.4,450,111.5
			c0,0-143.5,17.4-347-83.1c0,0-103.9-47.3-238.9-149.2L233.9,811L233.9,811z M541.8,53.4c0,0-644.8-23.4-420.4,576.8h39.1
			c0,0-105.7-218.4,0-386.1c0,0,51.2-95.2,151.5-136.9C312.1,107.2,448.9,53.4,541.8,53.4L541.8,53.4z"/>
		<path id="Tacho_1_" class="st3" d="M795,1023.6c42.8,8.1,85.6,12.3,127.7,12.3c52.3,0,100-6.6,142.4-18.9l12.8,25.5
			c-49.8,14.7-106.1,22.7-167.9,22.7c-47.5,0-95.8-4.7-144.1-13.5l9.8-32h0.1l15.2-47.4L795,1023.6z M542.2,932.4
			c70.1,37.7,144.7,66.6,219.8,84.2l-10,32.4c-88.7-17.7-177-49.4-259.9-91.8l35.1-33l0.2,0.1l33.9-30.2L542.2,932.4L542.2,932.4z
			 M1101,1004.8c55.6-22,100.5-54.8,132.7-96h42.3c-41.3,58.4-104.3,103.4-185.4,129.8l-12.7-25.5l-21.9-40.8L1101,1004.8z
			 M478.1,949.8C405.3,911.1,337,864.1,276.8,811H367c44.8,39.3,94.2,74.8,146.6,105.3L478.1,949.8z M262.6,373
			c-20.4,73.1-12.9,159.6,27.6,252.3c0.7,1.6,1.4,3.2,2.2,4.9h-94.9c-3.6-7.3-6.9-14.6-10.1-22c-49.1-112.6-52.8-216.9-18.9-302.1
			l100,48.5v0.1l53.4,26.2L262.6,373L262.6,373z M429.3,102.6l97.9,107.2l-64.9-34.6c-92.1,30.9-157.5,89.9-189.1,167l-99.6-48.3
			C215.6,200.4,304.6,131.5,429.3,102.6z M805.7,123.6c106.4,31.1,209.9,81.3,301.7,144.9h-80.8c-69.9-40.3-144.9-71.9-220.9-92
			L805.7,123.6L805.7,123.6z M770.5,168c-50-11-100.1-16.8-149.2-16.8c-42.1,0-81.1,4.3-116.9,12.3l-58.8-64.4
			c37.8-7.5,78.7-11.5,122.5-11.5c73.5,0,148.9,11.2,223,31.9v85.4L770.5,168L770.5,168z"/>
		<path id="Auto_1_" class="st2" d="M1138.1,635.1c-1.5-0.1-39.5-123.1-107.5-122.2c0,0-58.4-13.3-92.9,53.8c0,0,12.8-69.4,88-73.3
			C1118.6,488.5,1139.6,635.2,1138.1,635.1L1138.1,635.1z M1470.5,434.7c17.5,6.3,240,23.8,244.4,112.4c0,0-161.9,8.2-244.4,4.9
			c0,0-15.3-1.8,0,19.6c0,0,42.1,44.4,34.2,44c0,0-186.9-2.8-239.5-19.6c0,0,90.5,29.4,224.8,29.3c0,0,203.8,5.7,239.5-9.8
			c0,0-1.9,19.3,4.9,19.6h9.8c0,0,4.7-36.3,0-63.5c0,0-6.6-34.9-14.7-48.9c0,0-34.2-53.8-122.2-78.2c0,0-68.4-14.7-97.8-14.7
			C1509.6,429.8,1453,428.3,1470.5,434.7L1470.5,434.7z M1196.8,522.7c0,0,37.8,65.1,68.4,68.4c0,0,204.1,21.8,220,14.7
			c0,0-33.1-26.7-34.2-39.1c0,0-7.9-13.6,14.7-24.4c0,0-175.1,0.7-244.4-14.7L1196.8,522.7L1196.8,522.7z M1142.2,454.7
			c6.6,2.7,10.6,4.4,10.6,4.4C1151.4,458,1147.6,456.4,1142.2,454.7c-24.8-10.2-85.4-34.5-101.8-34.7c0,0,316.4-3.8,317.7-4.9
			c1.3-1.1-158.9-131.7-371.5-136.9c-200.4-4.9-229.7,0-229.7,0s-97.8,4.9-298.2,112.4c0,0-48.9,24.4-78.2,29.3c0,0-20.3,6,4.9,19.6
			c0,0-67.2,34-68.4,53.8c0,0-5.6,75.7,0,88l9.8,14.7c0,0-4.8-84,0-92.9c4.8-8.8,48.9-53.8,68.4-53.8c15.8,0,40.2,0.6,39.1,0
			s0-8.9,0-9.8c0-0.8-36.1,2-34.2,0s0-9.8,0-9.8s17.5,0.3,34.2-4.9c16.7-5.1,236.7-130.5,347-132s353.9-4.2,405.7,39.1
			c0,0-53.2-20.3-112.4-19.6c-59.3,0.7-264.4-8.8-249.3,4.9c15.1,13.7,111.8,95.2,113.8,113.8c0,0,87,0.8,86.6-1.3
			C1025.4,427.9,1111,444.8,1142.2,454.7L1142.2,454.7z M346.3,561.8c0,0,18.3-29.1,53.8-29.3c35.5-0.3,56.4,54.1,58.7,58.7
			c0,0-11.4-78.8-58.7-78.2C352.8,513.5,346.3,561.8,346.3,561.8z M546.7,444.5h229.7c0,0-26.7-20.7-14.7-29.3
			c12.1-8.6,39.1-29.3,83.1-4.9c0,0,19.6,14.7,4.9,24.4c0,0,12.3,10.1,14.7,9.8c2.4-0.3,44,0,44,0s-89.3-122-127.1-122.2
			c0,0-37.3-11.1-73.3,0s-171,61.2-171.1,78.2c-0.1,17-3.1,29.9,4.9,39.1L546.7,444.5L546.7,444.5z"/>
	</g>
	<g>
		<g id="Grün_1_">
			<path class="st4" d="M152,693.3h-23.4l-17.3,81.3H79.8l17.3-81.3H74l2.6-11.1h77.8L152,693.3z"/>
			<path class="st4" d="M224.8,774.6h-31.4l8.7-41.2h-17.9l-8.7,41.2h-31.4l19.6-92.4h31.6l-8.6,40.1h17.7l8.6-40.1h31.7
				L224.8,774.6z"/>
			<path class="st4" d="M279.8,741.6c-0.5,2.1-0.9,4-1.2,5.5c-0.3,1.6-0.4,3-0.4,4.4c0,3.4,1.2,6.1,3.6,8.1s5.9,3.1,10.5,3.1
				c3.4,0,6.2-0.6,8.4-1.7c2.2-1.2,4-2.7,5.4-4.7c1.4-1.9,2.5-4.2,3.3-6.7s1.5-5.2,2.1-8l12.4-59.3h13.2l-12.7,59.6
				c-1,4.7-2.4,9-4.2,13.1c-1.8,4.1-4.5,7.7-7.9,10.8s-7.9,5.6-13.3,7.3c-5.4,1.8-12.2,2.7-20.2,2.7c-11.2,0-19.4-1.8-24.7-5.5
				c-5.3-3.6-8-9.2-8-16.8c0-3.4,0.4-7.7,1.3-12.9c0.9-5.2,2-10.9,3.3-17l8.9-41.3h33L279.8,741.6L279.8,741.6z M292.3,653.2
				c3.5,0,6.1,1,7.7,3s2.5,4.4,2.5,7.2c0,3.1-1,5.9-3,8.4s-4.9,3.7-8.8,3.7c-3.6,0-6.2-1-7.9-3c-1.6-2-2.5-4.4-2.5-7.2
				c0-3.1,1-5.9,3.1-8.4C285.5,654.4,288.4,653.2,292.3,653.2L292.3,653.2z M323.2,653.2c3.6,0,6.2,1,7.9,3c1.6,2,2.5,4.4,2.5,7.2
				c0,3.1-1,5.9-3.1,8.4c-2,2.5-5,3.7-8.9,3.7c-3.6,0-6.2-1-7.9-3c-1.6-2-2.5-4.4-2.5-7.2c0-3.1,1-5.9,3.1-8.4
				C316.3,654.4,319.3,653.2,323.2,653.2L323.2,653.2z"/>
			<path class="st4" d="M423.2,704.2c0,5.7-1.6,11-4.8,15.9c-3.2,4.8-8.5,8.5-15.9,11.1l16.9,43.5H387l-12.8-40.3h-1.6l-8.6,40.3
				h-31.4l19.6-92.4h38.3c4.5,0,8.7,0.3,12.7,0.8s7.4,1.6,10.4,3.2c3,1.6,5.3,3.8,7.1,6.7C422.3,695.8,423.2,699.6,423.2,704.2
				L423.2,704.2z M381.3,725c2.5,0,4.7-0.8,6.5-2.5s3.2-3.8,4.4-6.2c1.1-2.4,1.9-5,2.4-7.8s0.7-5.2,0.7-7.2c0-2.5-0.4-4.7-1.3-6.5
				s-2.8-2.7-5.7-2.7h-6.5l-7.3,32.9H381.3L381.3,725z"/>
			<path class="st4" d="M456.1,774.6h-31.4l19.6-92.4h31.6L456.1,774.6z"/>
			<path class="st4" d="M549.6,774.6h-34l-16.1-66.8l-14.3,66.8h-13.1l19.6-92.4h34.8l15.3,67.6l14.4-67.6h13.4L549.6,774.6
				L549.6,774.6z"/>
			<path class="st4" d="M617.4,732.4h37.7l-8.4,42.2h-17.2l-2.8-9.3h-0.6c-2.5,2.9-5.5,5.4-8.9,7.4s-7.9,3.1-13.5,3.1
				c-4.3,0-8.4-0.7-12.3-2.1c-3.9-1.4-7.4-3.6-10.5-6.7c-3.1-3.1-5.5-7.1-7.3-12s-2.8-10.9-2.8-17.9c0-7.6,1.2-14.7,3.5-21.5
				s5.8-12.8,10.5-18s10.5-9.3,17.5-12.3s15.1-4.5,24.4-4.5c7.2,0,13.4,0.8,18.8,2.5c5.3,1.6,10.4,3.5,15.1,5.5l-5.5,28.2h-24.6
				c0.1-1.1,0.2-2.3,0.4-3.8s0.3-3,0.4-4.6c0.1-1.6,0.2-3.2,0.3-4.7c0.1-1.6,0.1-2.9,0.1-4.1c0-0.8,0-1.7-0.1-2.7s-0.3-2-0.7-3
				s-1-1.8-1.7-2.4c-0.8-0.6-1.9-0.9-3.3-0.9c-2.5,0-4.8,1-6.9,3.1c-2.1,2.1-4,4.8-5.6,8.3c-1.6,3.4-3.1,7.3-4.3,11.7
				s-2.2,8.8-3.1,13.3c-0.8,4.5-1.5,8.9-1.9,13.2s-0.7,8.1-0.7,11.3c0,1,0,2.2,0.1,3.6c0.1,1.5,0.4,2.9,0.9,4.3
				c0.5,1.4,1.3,2.6,2.3,3.6s2.5,1.5,4.4,1.5c3.2,0,6.3-1.7,9.3-5.2s5.3-9.3,6.8-17.5H615L617.4,732.4L617.4,732.4z"/>
			<path class="st4" d="M678.8,682.3H740l-2.3,11.1H708l-6.1,28.1h24.9l-2.3,10.9h-24.9l-6.7,31.1h29.7l-2.2,11.2h-61.2L678.8,682.3
				L678.8,682.3z"/>
			<path class="st4" d="M822.9,704.2c0,5.7-1.6,11-4.8,15.9c-3.2,4.8-8.5,8.5-15.9,11.1l16.9,43.5h-32.4l-12.8-40.3h-1.6l-8.6,40.3
				h-31.4l19.6-92.4h38.3c4.5,0,8.7,0.3,12.7,0.8s7.4,1.6,10.4,3.2c3,1.6,5.3,3.8,7.1,6.7C822,695.8,822.9,699.6,822.9,704.2
				L822.9,704.2z M781,725c2.5,0,4.7-0.8,6.5-2.5s3.2-3.8,4.4-6.2c1.1-2.4,1.9-5,2.4-7.8s0.7-5.2,0.7-7.2c0-2.5-0.4-4.7-1.3-6.5
				c-0.9-1.8-2.8-2.7-5.7-2.7h-6.5l-7.3,32.9H781L781,725z"/>
			<path class="st4" d="M935.2,693.3h-23.4l-17.3,81.3h-31.4l17.3-81.3h-23.1l2.6-11.1h77.8L935.2,693.3z"/>
			<path class="st4" d="M966.2,741.6c-0.5,2.1-0.9,4-1.2,5.5c-0.3,1.6-0.4,3-0.4,4.4c0,3.4,1.2,6.1,3.6,8.1c2.4,2,5.9,3.1,10.5,3.1
				c3.4,0,6.2-0.6,8.4-1.7c2.2-1.2,4-2.7,5.4-4.7c1.4-1.9,2.5-4.2,3.3-6.7s1.5-5.2,2.1-8l12.4-59.3h13.2l-12.7,59.6
				c-1,4.7-2.4,9-4.2,13.1s-4.5,7.7-7.9,10.8s-7.9,5.6-13.3,7.3c-5.4,1.8-12.2,2.7-20.2,2.7c-11.2,0-19.4-1.8-24.7-5.5
				c-5.3-3.6-8-9.2-8-16.8c0-3.4,0.4-7.7,1.3-12.9c0.9-5.2,2-10.9,3.3-17l8.9-41.3h33L966.2,741.6L966.2,741.6z"/>
			<path class="st4" d="M1096.5,774.6h-34l-16.1-66.8l-14.3,66.8H1019l19.6-92.4h34.8l15.3,67.6l14.4-67.6h13.4L1096.5,774.6
				L1096.5,774.6z"/>
			<path class="st4" d="M1144.1,774.6h-31.4l19.6-92.4h31.6L1144.1,774.6L1144.1,774.6z"/>
			<path class="st4" d="M1237.6,774.6h-34l-16.1-66.8l-14.3,66.8h-13.1l19.6-92.4h34.8l15.3,67.6l14.4-67.6h13.4L1237.6,774.6
				L1237.6,774.6z"/>
			<path class="st4" d="M1305.4,732.4h37.7l-8.4,42.2h-17.2l-2.8-9.3h-0.6c-2.5,2.9-5.5,5.4-8.9,7.4s-7.9,3.1-13.5,3.1
				c-4.3,0-8.4-0.7-12.3-2.1c-3.9-1.4-7.4-3.6-10.5-6.7c-3.1-3.1-5.5-7.1-7.3-12s-2.8-10.9-2.8-17.9c0-7.6,1.2-14.7,3.5-21.5
				s5.8-12.8,10.5-18s10.5-9.3,17.5-12.3s15.1-4.5,24.4-4.5c7.2,0,13.4,0.8,18.8,2.5c5.3,1.6,10.4,3.5,15.1,5.5L1343,717h-24.6
				c0.1-1.1,0.2-2.3,0.4-3.8c0.2-1.5,0.3-3,0.4-4.6s0.2-3.2,0.3-4.7c0.1-1.6,0.1-2.9,0.1-4.1c0-0.8,0-1.7-0.1-2.7s-0.3-2-0.7-3
				s-1-1.8-1.7-2.4c-0.8-0.6-1.9-0.9-3.3-0.9c-2.5,0-4.8,1-6.9,3.1s-4,4.8-5.6,8.3c-1.6,3.4-3.1,7.3-4.3,11.7
				c-1.2,4.4-2.2,8.8-3.1,13.3c-0.8,4.5-1.5,8.9-1.9,13.2s-0.7,8.1-0.7,11.3c0,1,0,2.2,0.1,3.6c0.1,1.5,0.4,2.9,0.9,4.3
				c0.5,1.4,1.3,2.6,2.3,3.6s2.5,1.5,4.4,1.5c3.2,0,6.3-1.7,9.3-5.2s5.3-9.3,6.8-17.5h-12.2L1305.4,732.4L1305.4,732.4z"/>
			<path class="st4" d="M1394.5,682.3h61.2l-2.3,11.1h-29.8l-5.7,26.6h24.9l-2.3,11.2h-24.9l-9.3,43.5h-31.4L1394.5,682.3
				L1394.5,682.3z"/>
			<path class="st4" d="M1536.9,704.2c0,5.7-1.6,11-4.8,15.9c-3.2,4.8-8.5,8.5-15.9,11.1l16.9,43.5h-32.4l-12.8-40.3h-1.6l-8.6,40.3
				h-31.4l19.6-92.4h38.3c4.5,0,8.7,0.3,12.7,0.8s7.4,1.6,10.4,3.2c3,1.6,5.3,3.8,7.1,6.7C1536.1,695.8,1536.9,699.6,1536.9,704.2z
				 M1495,725c2.5,0,4.7-0.8,6.5-2.5s3.2-3.8,4.4-6.2c1.1-2.4,1.9-5,2.4-7.8s0.7-5.2,0.7-7.2c0-2.5-0.4-4.7-1.3-6.5
				s-2.8-2.7-5.7-2.7h-6.5l-7.3,32.9H1495L1495,725z"/>
			<path class="st4" d="M1558,682.3h61.2l-2.3,11.1h-29.7l-6.1,28.1h24.9l-2.3,10.9h-24.9l-6.7,31.1h29.7l-2.2,11.2h-61.2
				L1558,682.3z"/>
			<path class="st4" d="M1650.4,741.6c-0.5,2.1-0.9,4-1.2,5.5c-0.3,1.6-0.4,3-0.4,4.4c0,3.4,1.2,6.1,3.6,8.1s5.9,3.1,10.5,3.1
				c3.4,0,6.2-0.6,8.4-1.7s4-2.7,5.4-4.7c1.4-1.9,2.5-4.2,3.3-6.7s1.5-5.2,2.1-8l12.4-59.3h13.2l-12.7,59.6c-1,4.7-2.4,9-4.2,13.1
				c-1.8,4.1-4.5,7.7-7.9,10.8s-7.9,5.6-13.3,7.3c-5.4,1.8-12.2,2.7-20.2,2.7c-11.2,0-19.4-1.8-24.7-5.5c-5.3-3.6-8-9.2-8-16.8
				c0-3.4,0.4-7.7,1.3-12.9s2-10.9,3.3-17l8.9-41.3h33L1650.4,741.6L1650.4,741.6z"/>
			<path class="st4" d="M1780.7,774.6h-34l-16.1-66.8l-14.3,66.8h-13.1l19.6-92.4h34.8l15.3,67.6l14.4-67.6h13.4L1780.7,774.6
				L1780.7,774.6z"/>
			<path class="st4" d="M1796.8,774.6l19.6-92.4h39.1c6,0,11.3,0.6,15.8,1.8s8.2,3.2,11.2,6s5.2,6.5,6.7,11.1s2.3,10.1,2.3,16.7
				c0,7.1-0.9,14-2.7,20.8c-1.8,6.8-4.8,12.8-8.9,18.2c-4.2,5.3-9.6,9.6-16.4,12.9c-6.7,3.2-15.1,4.9-24.9,4.9H1796.8L1796.8,774.6z
				 M1836.7,764.4c3.2,0,6-1.3,8.5-4s4.6-6.1,6.4-10.2c1.8-4.1,3.3-8.7,4.5-13.7s2.2-9.8,2.9-14.5c0.7-4.7,1.3-8.8,1.6-12.5
				c0.3-3.7,0.5-6.3,0.5-7.9c0-3-0.6-5.4-1.8-7.1c-1.2-1.7-3.3-2.5-6.3-2.5h-7l-15.6,72.3h6.3V764.4z"/>
			<path class="st4" d="M1912.8,682.3h61.2l-2.3,11.1H1942l-6.1,28.1h24.9l-2.3,10.9h-24.9l-6.7,31.1h29.7l-2.2,11.2h-61.2
				L1912.8,682.3z"/>
			<path class="st4" d="M1526.7,824h-16l-11.9,55.7h-21.5l11.9-55.7h-15.9l1.8-7.6h53.3L1526.7,824L1526.7,824z"/>
			<path class="st4" d="M1554.1,836.9h20.3l-9.2,42.9h-16.1l-1.8-6.4h-0.6c-1.7,2.1-4.1,3.8-7,5.1c-3,1.4-5.9,2-8.9,2
				c-4,0-7.1-1-9.4-3s-3.4-4.7-3.4-7.9c0-1.7,0.3-3.7,0.8-6.2c0.6-2.5,1.1-4.8,1.5-7l4.2-19.4h20.2l-5,23.3
				c-0.1,0.5-0.3,1.2-0.4,1.9s-0.3,1.4-0.4,2.1c-0.1,0.7-0.2,1.4-0.3,2c-0.1,0.6-0.1,1.1-0.1,1.5c0,1,0.2,1.8,0.6,2.5s1.2,1,2.3,1
				c1.2,0,2.3-0.4,3.4-1.2s1.9-1.6,2.5-2.3L1554.1,836.9z"/>
			<path class="st4" d="M1602,843.2c1.4-1.3,3-2.6,4.7-3.7c1.5-0.9,3.3-1.8,5.4-2.6s4.4-1.2,6.9-1.2c3.5,0,6.3,0.9,8.6,2.6
				c2.3,1.8,3.4,4.2,3.4,7.2c0,0.9-0.1,1.9-0.3,3.1c-0.2,1.2-0.4,2.5-0.7,3.8c-0.3,1.3-0.5,2.7-0.8,4c-0.3,1.4-0.5,2.6-0.7,3.6
				l-4.2,19.4h-20.2l5.5-26c0.1-0.9,0.3-1.7,0.5-2.6c0.2-0.9,0.3-1.7,0.3-2.4c0-1-0.2-1.8-0.7-2.4c-0.5-0.6-1.2-0.9-2.2-0.9
				c-1.2,0-2.3,0.4-3.4,1.3c-1.1,0.9-1.9,1.6-2.5,2.2l-6.6,31h-20.3l9.1-42.9h16.2l1.8,6.4L1602,843.2L1602,843.2z"/>
			<path class="st4" d="M1652.9,879.7h-20.2l9.1-42.9h20.4L1652.9,879.7L1652.9,879.7z M1664.8,823.8c0,1.5-0.3,2.9-0.9,4
				s-1.5,2.1-2.5,2.9c-1,0.8-2.2,1.4-3.5,1.8c-1.3,0.4-2.7,0.6-4.1,0.6c-2.7,0-4.9-0.6-6.7-1.9c-1.8-1.3-2.7-3.3-2.7-6
				c0-1.5,0.3-2.8,0.9-3.9c0.6-1.2,1.4-2.1,2.4-2.9c1-0.8,2.2-1.3,3.6-1.7s2.8-0.6,4.2-0.6c2.6,0,4.8,0.6,6.6,1.9
				C1663.9,819.2,1664.8,821.1,1664.8,823.8z"/>
			<path class="st4" d="M1689.6,843.2c1.4-1.3,3-2.6,4.7-3.7c1.5-0.9,3.3-1.8,5.4-2.6s4.4-1.2,6.9-1.2c3.5,0,6.3,0.9,8.6,2.6
				c2.3,1.8,3.4,4.2,3.4,7.2c0,0.9-0.1,1.9-0.3,3.1c-0.2,1.2-0.4,2.5-0.7,3.8c-0.3,1.3-0.5,2.7-0.8,4c-0.3,1.4-0.5,2.6-0.7,3.6
				l-4.2,19.4h-20.2l5.5-26c0.1-0.9,0.3-1.7,0.5-2.6c0.2-0.9,0.3-1.7,0.3-2.4c0-1-0.2-1.8-0.7-2.4c-0.5-0.6-1.2-0.9-2.2-0.9
				c-1.2,0-2.3,0.4-3.4,1.3c-1.1,0.9-1.9,1.6-2.5,2.2l-6.6,31h-20.3l9.1-42.9h16.2l1.8,6.4L1689.6,843.2L1689.6,843.2z"/>
			<path class="st4" d="M1762,836.9h16.1l-8.2,38.8c-0.6,3-1.6,5.7-3,8.3c-1.4,2.5-3.3,4.7-5.8,6.6c-2.5,1.9-5.6,3.3-9.4,4.4
				c-3.8,1.1-8.3,1.6-13.7,1.6c-1,0-2.2,0-3.6,0s-2.8-0.1-4.3-0.1s-2.9-0.1-4.2-0.1c-1.3-0.1-2.4-0.1-3.2-0.2l1.9-7.2
				c2.1,0.3,4.3,0.5,6.5,0.5s4.1,0,5.7,0c2,0,3.7-0.2,5-0.5s2.5-0.9,3.4-1.7s1.6-1.9,2.2-3.2s1-3,1.3-4.9l1.2-6.5h-0.7
				c-0.4,0.6-1,1.3-1.7,2.1c-0.8,0.8-1.7,1.6-2.9,2.4c-1.2,0.8-2.6,1.4-4.2,1.9s-3.5,0.7-5.5,0.7c-2.3,0-4.3-0.3-5.9-1
				s-2.9-1.7-3.9-2.9s-1.7-2.7-2.2-4.4s-0.7-3.5-0.7-5.5c0-0.9,0.1-2.2,0.2-4s0.4-3.8,0.9-6.1s1.2-4.6,2.2-6.9
				c1-2.4,2.3-4.5,3.9-6.4s3.7-3.5,6.1-4.8s5.4-1.9,8.8-1.9c1.1,0,2.2,0.1,3.5,0.3s2.5,0.6,3.7,1.1s2.3,1.3,3.2,2.3
				c0.9,1,1.7,2.3,2.2,3.9h0.6L1762,836.9L1762,836.9z M1750.8,845.5c-1.6,0-2.9,0.8-4,2.5s-1.9,3.7-2.6,5.9
				c-0.7,2.3-1.1,4.5-1.4,6.7s-0.4,3.9-0.4,4.9c0,1.3,0.2,2.4,0.6,3.3c0.4,0.9,1.2,1.3,2.3,1.3c0.7,0,1.3-0.2,1.9-0.5
				s1.2-0.7,1.8-1.1c0.6-0.4,1.1-0.9,1.5-1.3c0.4-0.5,0.7-0.8,0.9-1.1l3.7-17.4c-0.5-0.7-1.1-1.5-1.8-2.2
				C1752.6,845.9,1751.8,845.5,1750.8,845.5L1750.8,845.5z"/>
			<path class="st4" d="M1823.2,877.3c-2.8,1.1-5.7,1.9-8.8,2.4c-3.1,0.5-6.6,0.7-10.5,0.7c-3.5,0-6.6-0.3-9.5-1s-5.4-1.8-7.5-3.3
				s-3.8-3.5-5-5.9s-1.8-5.4-1.8-8.8c0-3.6,0.6-6.9,1.8-10c1.2-3.1,3.1-5.8,5.6-8.1s5.7-4.2,9.5-5.5s8.4-2,13.8-2
				c4.3,0,8.1,0.3,11.3,1c3.2,0.7,5.8,2.3,7.9,4.7l-2.8,12.8h-13.6c0.1-1.1,0.1-2.1,0.2-3s0.1-1.8,0.1-2.9c0-2.1-0.2-3.6-0.7-4.5
				s-1.2-1.3-2.3-1.3c-1.9,0-3.5,0.9-4.9,2.7s-2.5,4-3.4,6.6s-1.6,5.2-2,8.1c-0.4,2.8-0.6,5.2-0.6,7.2c0,0.7,0,1.5,0.1,2.2
				c0.1,0.8,0.2,1.5,0.4,2.1c0.2,0.7,0.5,1.2,0.9,1.6c0.4,0.4,1,0.6,1.7,0.6s1.4-0.2,2.3-0.6c0.9-0.4,1.7-1,2.5-1.8s1.6-1.9,2.3-3.2
				c0.7-1.3,1.3-2.9,1.7-4.8h14.3L1823.2,877.3L1823.2,877.3z"/>
			<path class="st4" d="M1850.2,879.7h-20.3l14.2-67h20.4L1850.2,879.7z"/>
			<path class="st4" d="M1897.2,836.9h20.3l-9.2,42.9h-16.1l-1.8-6.4h-0.6c-1.7,2.1-4.1,3.8-7,5.1c-3,1.4-5.9,2-8.9,2
				c-4,0-7.1-1-9.4-3s-3.4-4.7-3.4-7.9c0-1.7,0.3-3.7,0.8-6.2c0.6-2.5,1.1-4.8,1.5-7l4.2-19.4h20.2l-5,23.3
				c-0.1,0.5-0.3,1.2-0.4,1.9s-0.3,1.4-0.4,2.1c-0.1,0.7-0.2,1.4-0.3,2c-0.1,0.6-0.1,1.1-0.1,1.5c0,1,0.2,1.8,0.6,2.5s1.2,1,2.3,1
				c1.2,0,2.3-0.4,3.4-1.2s1.9-1.6,2.5-2.3L1897.2,836.9z"/>
			<path class="st4" d="M1933.5,879.7h-16.1l14.2-67h20.4l-6.5,30.5h0.7c2.2-2.5,4.7-4.3,7.4-5.4c2.8-1.1,5.5-1.6,8.2-1.6
				c2.3,0,4.3,0.3,5.8,1c1.6,0.7,2.8,1.6,3.7,2.8c0.9,1.2,1.6,2.6,2,4.3s0.6,3.4,0.6,5.3c0,0.9-0.1,2.3-0.2,4.2s-0.4,3.9-0.9,6.2
				s-1.1,4.7-2,7.1c-0.9,2.4-2,4.6-3.4,6.6s-3.2,3.6-5.4,4.9c-2.2,1.3-4.7,1.9-7.7,1.9c-1.8,0-3.5-0.2-5.2-0.6s-3.2-0.9-4.6-1.6
				c-1.4-0.7-2.6-1.4-3.6-2.3c-1-0.9-1.8-1.8-2.2-2.7h-0.7L1933.5,879.7L1933.5,879.7z M1944.8,870.9c1.6,0,2.9-0.8,4-2.5
				s1.9-3.7,2.6-6s1.1-4.6,1.4-6.9c0.3-2.3,0.4-4,0.4-5.1c0-1.3-0.2-2.4-0.6-3.3c-0.4-0.9-1.2-1.3-2.3-1.3c-1.3,0-2.6,0.5-3.7,1.4
				c-1.1,1-2,1.8-2.5,2.4l-3.9,17.8c0.5,0.8,1.1,1.6,1.8,2.3C1942.8,870.5,1943.7,870.9,1944.8,870.9L1944.8,870.9z"/>
		</g>
		<g id="Orange_1_">
			<path class="st5" d="M801,879.7h-22.1l9.2-43.1l-23.6,43.1h-13.6l-4.5-44.6l-9.6,44.6h-9l13.5-63.3h25.4l3.1,35.7l19.1-35.7h25.6
				L801,879.7L801,879.7z"/>
			<path class="st5" d="M819.2,840.6c3.4-1.7,6.9-2.9,10.4-3.6c3.6-0.8,7.5-1.1,11.9-1.1c4.3,0,7.8,0.3,10.6,1s5,1.6,6.7,2.9
				c1.7,1.3,2.8,2.8,3.5,4.5s1,3.7,1,5.9c0,1.3-0.1,2.6-0.2,4.1c-0.2,1.5-0.3,2.7-0.5,3.7l-4.7,21.9h-16l-1.8-6.4h-0.6
				c-2.1,2.3-4.6,4.1-7.4,5.3s-5.6,1.8-8.4,1.8c-1.6,0-3.2-0.2-4.7-0.7s-2.9-1.2-4.1-2.1c-1.2-1-2.2-2.2-2.9-3.7s-1.1-3.3-1.1-5.4
				c0-3.5,0.9-6.2,2.8-8.2c1.9-2,4.4-3.6,7.5-4.6s6.6-1.7,10.5-1.9c3.9-0.3,7.8-0.4,11.7-0.4c0.1-0.7,0.3-1.6,0.5-2.8
				s0.3-2.3,0.3-3.2c0-1.2-0.3-2.3-0.9-3.3c-0.6-1-1.9-1.5-3.9-1.5c-2.3,0-4,0.7-5.1,2c-1.1,1.4-1.8,3-2.1,4.9h-14.6L819.2,840.6
				L819.2,840.6z M842.1,858.1h-1.8c-1.9,0-3.6,0.2-4.9,0.7c-1.4,0.5-2.5,1.1-3.3,1.9s-1.4,1.7-1.8,2.7c-0.4,1-0.6,2-0.6,3
				c0,1.6,0.4,2.8,1.2,3.6s1.8,1.2,2.9,1.2c1.4,0,2.8-0.5,4.1-1.5c1.4-1,2.2-2.3,2.5-4L842.1,858.1z"/>
			<path class="st5" d="M875.1,836.9h16.2l1.5,7.5h0.7c1.5-2.4,3.5-4.4,5.9-6.1c2.4-1.7,5.5-2.5,9.5-2.5c0.3,0,0.7,0,1.2,0
				c0.6,0,1.2,0.1,1.9,0.3s1.4,0.4,2.2,0.7s1.5,0.7,2.2,1.2l-4.4,20.5h-10.9c-0.1-4.1-0.5-7-1.1-8.6s-1.6-2.4-2.9-2.4
				c-0.7,0-1.4,0.1-2.1,0.4c-0.8,0.3-1.5,0.9-2.3,1.9l-6.4,29.8H866L875.1,836.9L875.1,836.9z"/>
			<path class="st5" d="M939.8,855l23.2-18.1h13.2l-19.8,16.2l14.9,26.6H949l-10.2-20l-4.2,20h-20.3l14.2-67h20.4L939.8,855
				L939.8,855z"/>
			<path class="st5" d="M994.8,859.7c-0.3,1.5-0.4,2.9-0.5,4.2s-0.1,2.5-0.1,3.6c0,0.6,0,1.3,0.1,2s0.2,1.4,0.4,2s0.6,1.2,1,1.6
				c0.4,0.4,1,0.6,1.8,0.6c0.6,0,1.3-0.2,2-0.6c0.8-0.4,1.5-1,2.3-1.7s1.5-1.6,2.2-2.7c0.7-1.1,1.2-2.3,1.6-3.6h16.3l-2.6,10.7
				c-1.3,0.9-2.9,1.6-4.6,2.2c-1.7,0.6-3.6,1.1-5.5,1.4c-1.9,0.4-3.9,0.6-5.9,0.8s-3.9,0.2-5.7,0.2c-3.3,0-6.4-0.3-9.3-0.9
				c-2.9-0.6-5.3-1.6-7.5-3.1c-2.1-1.5-3.8-3.4-5-5.8c-1.2-2.4-1.8-5.4-1.8-9c0-3.3,0.5-6.4,1.5-9.6c1-3.1,2.8-5.9,5.2-8.3
				c2.4-2.4,5.7-4.4,9.8-5.8c4.1-1.5,9.2-2.2,15.3-2.2c6.6,0,11.6,1,15,3.1c3.4,2.1,5,5.3,5,9.7c0,1.8-0.3,3.7-0.8,5.8
				s-1.3,3.9-2.4,5.3L994.8,859.7L994.8,859.7z M1008.1,847.8c0-2.1-0.3-3.5-1-4.2s-1.5-1.1-2.4-1.1c-1.1,0-2,0.3-2.9,1
				s-1.7,1.6-2.4,2.8s-1.4,2.5-2,4s-1.1,3.1-1.5,4.7h11.4c0.1-0.8,0.3-1.6,0.4-2.5c0.1-0.7,0.2-1.5,0.3-2.4
				C1008,849.4,1008.1,848.6,1008.1,847.8L1008.1,847.8z"/>
			<path class="st5" d="M1054.3,843.2c1.4-1.3,3-2.6,4.7-3.7c1.5-0.9,3.3-1.8,5.4-2.6s4.4-1.2,6.9-1.2c3.5,0,6.3,0.9,8.6,2.6
				c2.3,1.8,3.4,4.2,3.4,7.2c0,0.9-0.1,1.9-0.3,3.1c-0.2,1.2-0.4,2.5-0.7,3.8c-0.3,1.3-0.5,2.7-0.8,4c-0.3,1.4-0.5,2.6-0.7,3.6
				l-4.2,19.4h-20.2l5.5-26c0.1-0.9,0.3-1.7,0.5-2.6c0.2-0.9,0.3-1.7,0.3-2.4c0-1-0.2-1.8-0.7-2.4c-0.5-0.6-1.2-0.9-2.2-0.9
				c-1.2,0-2.3,0.4-3.4,1.3c-1.1,0.9-1.9,1.6-2.5,2.2l-6.6,31H1027l9.1-42.9h16.2l1.8,6.4L1054.3,843.2L1054.3,843.2z"/>
			<path class="st5" d="M1136.5,835.8c7.9,0,13.7,1.4,17.2,4.2c3.8,2.9,5.7,7.8,5.7,14.6c0,4.2-0.7,8-2.1,11.3s-3.4,6.1-5.9,8.3
				c-5.1,4.3-12.4,6.4-21.9,6.4c-8.2,0-14-1.6-17.5-4.7c-3.8-3.3-5.7-8.1-5.7-14.7c0-4.3,0.9-8.2,2.6-11.8c1.8-3.5,4.3-6.4,7.6-8.8
				C1121.4,837.4,1128,835.8,1136.5,835.8L1136.5,835.8z M1129.7,873.8c1.7,0,3.1-0.9,4.3-2.8c1.2-1.9,2.2-4.1,2.9-6.8
				c0.7-2.7,1.3-5.5,1.6-8.4c0.4-2.9,0.5-5.4,0.5-7.5c0-1.9-0.2-3.3-0.5-4.2c-0.4-1-1.1-1.4-2.3-1.4c-1.8,0-3.3,1-4.6,2.9
				c-1.3,1.9-2.3,4.2-3.1,6.9c-0.8,2.7-1.4,5.4-1.7,8.2c-0.4,2.8-0.5,5.1-0.5,6.8C1126.2,871.6,1127.4,873.8,1129.7,873.8
				L1129.7,873.8z"/>
			<path class="st5" d="M1165.8,836.9h7.7l0.4-1.7c0.9-4,2.1-7.4,3.7-10.1c1.6-2.8,3.6-5,5.9-6.7s5-3,8-3.7c3-0.8,6.4-1.1,10-1.1
				c2.8,0,5.5,0.2,8.3,0.6c2.7,0.4,5.3,1,7.6,1.7c2.3-1.7,4.9-2.9,7.7-3.6c2.8-0.7,5.9-1.1,9.1-1.1c2.1,0,4.3,0.1,6.6,0.4
				c2.3,0.3,4.8,0.7,7.4,1.3l-1.7,8c-1.5-0.2-3-0.3-4.6-0.4c-1.6-0.1-2.9-0.1-3.9-0.1c-1.3,0-2.5,0.1-3.5,0.3s-1.9,0.6-2.6,1.1
				c-0.7,0.6-1.4,1.3-1.9,2.3s-1,2.3-1.3,4l-1.9,9h10.5l-1.3,6.7h-10.6l-7.7,36.2h-20.3l7.7-36.2h-12.7l-7.7,36.2h-20.2l7.6-36.2
				h-7.7L1165.8,836.9L1165.8,836.9z M1193.9,836.9h12.7l0.9-4.1c0.4-1.8,0.9-3.5,1.4-5c0.6-1.6,1.2-3,1.9-4.3
				c-2.3-0.6-4.6-0.9-6.9-0.9c-2.5,0-4.4,0.5-5.7,1.5c-1.3,1-2.3,3.1-3,6.2L1193.9,836.9L1193.9,836.9z"/>
			<path class="st5" d="M1255.6,859.7c-0.3,1.5-0.4,2.9-0.5,4.2s-0.1,2.5-0.1,3.6c0,0.6,0,1.3,0.1,2s0.2,1.4,0.4,2
				c0.2,0.6,0.6,1.2,1,1.6s1,0.6,1.8,0.6c0.6,0,1.3-0.2,2-0.6c0.8-0.4,1.5-1,2.3-1.7s1.5-1.6,2.2-2.7c0.7-1.1,1.2-2.3,1.6-3.6h16.3
				l-2.6,10.7c-1.3,0.9-2.9,1.6-4.6,2.2c-1.7,0.6-3.6,1.1-5.5,1.4c-1.9,0.4-3.9,0.6-5.9,0.8s-3.9,0.2-5.7,0.2
				c-3.3,0-6.4-0.3-9.3-0.9c-2.9-0.6-5.4-1.6-7.5-3.1s-3.8-3.4-5-5.8c-1.2-2.4-1.8-5.4-1.8-9c0-3.3,0.5-6.4,1.5-9.6
				c1-3.1,2.8-5.9,5.2-8.3c2.4-2.4,5.7-4.4,9.8-5.8c4.1-1.5,9.2-2.2,15.3-2.2c6.6,0,11.6,1,15,3.1s5,5.3,5,9.7
				c0,1.8-0.3,3.7-0.8,5.8s-1.3,3.9-2.4,5.3L1255.6,859.7L1255.6,859.7z M1268.8,847.8c0-2.1-0.3-3.5-1-4.2s-1.5-1.1-2.4-1.1
				c-1.1,0-2,0.3-2.9,1s-1.7,1.6-2.4,2.8c-0.7,1.2-1.4,2.5-2,4s-1.1,3.1-1.5,4.7h11.4c0.1-0.8,0.3-1.6,0.4-2.5
				c0.1-0.7,0.2-1.5,0.3-2.4S1268.8,848.6,1268.8,847.8z"/>
			<path class="st5" d="M1315.1,843.2c1.4-1.3,3-2.6,4.7-3.7c1.5-0.9,3.3-1.8,5.4-2.6s4.4-1.2,6.9-1.2c3.5,0,6.3,0.9,8.6,2.6
				c2.3,1.8,3.4,4.2,3.4,7.2c0,0.9-0.1,1.9-0.3,3.1c-0.2,1.2-0.4,2.5-0.7,3.8c-0.3,1.3-0.5,2.7-0.8,4c-0.3,1.4-0.5,2.6-0.7,3.6
				l-4.2,19.4H1317l5.5-26c0.1-0.9,0.3-1.7,0.5-2.6c0.2-0.9,0.3-1.7,0.3-2.4c0-1-0.2-1.8-0.7-2.4c-0.5-0.6-1.2-0.9-2.2-0.9
				c-1.2,0-2.3,0.4-3.4,1.3c-1.1,0.9-1.9,1.6-2.5,2.2l-6.6,31h-20.3l9.1-42.9h16.2l1.8,6.4L1315.1,843.2L1315.1,843.2z"/>
			<path class="st5" d="M1368.5,859.7c-0.3,1.5-0.4,2.9-0.5,4.2s-0.1,2.5-0.1,3.6c0,0.6,0,1.3,0.1,2s0.2,1.4,0.4,2
				c0.2,0.6,0.6,1.2,1,1.6s1,0.6,1.8,0.6c0.6,0,1.3-0.2,2-0.6c0.8-0.4,1.5-1,2.3-1.7s1.5-1.6,2.2-2.7c0.7-1.1,1.2-2.3,1.6-3.6h16.3
				l-2.6,10.7c-1.3,0.9-2.9,1.6-4.6,2.2c-1.7,0.6-3.6,1.1-5.5,1.4c-1.9,0.4-3.9,0.6-5.9,0.8s-3.9,0.2-5.7,0.2
				c-3.3,0-6.4-0.3-9.3-0.9c-2.9-0.6-5.4-1.6-7.5-3.1s-3.8-3.4-5-5.8c-1.2-2.4-1.8-5.4-1.8-9c0-3.3,0.5-6.4,1.5-9.6
				c1-3.1,2.8-5.9,5.2-8.3c2.4-2.4,5.7-4.4,9.8-5.8c4.1-1.5,9.2-2.2,15.3-2.2c6.6,0,11.6,1,15,3.1s5,5.3,5,9.7
				c0,1.8-0.3,3.7-0.8,5.8s-1.3,3.9-2.4,5.3L1368.5,859.7L1368.5,859.7z M1381.8,847.8c0-2.1-0.3-3.5-1-4.2s-1.5-1.1-2.4-1.1
				c-1.1,0-2,0.3-2.9,1s-1.7,1.6-2.4,2.8c-0.7,1.2-1.4,2.5-2,4s-1.1,3.1-1.5,4.7h11.4c0.1-0.8,0.3-1.6,0.4-2.5
				c0.1-0.7,0.2-1.5,0.3-2.4S1381.8,848.6,1381.8,847.8z"/>
			<path class="st5" d="M1409.4,836.9h16.2l1.5,7.5h0.7c1.5-2.4,3.5-4.4,5.9-6.1c2.4-1.7,5.5-2.5,9.5-2.5c0.3,0,0.7,0,1.2,0
				c0.6,0,1.2,0.1,1.9,0.3c0.7,0.2,1.4,0.4,2.2,0.7c0.8,0.3,1.5,0.7,2.2,1.2l-4.4,20.5h-10.9c-0.1-4.1-0.5-7-1.1-8.6
				s-1.6-2.4-2.9-2.4c-0.7,0-1.4,0.1-2.1,0.4c-0.8,0.3-1.5,0.9-2.3,1.9l-6.4,29.8h-20.3L1409.4,836.9L1409.4,836.9z"/>
		</g>
	</g>
</g>
</svg>
